<?xml version="1.0" encoding="UTF-8"?>
<!DOCTYPE svg PUBLIC "-//W3C//DTD SVG 1.1//EN" "http://www.w3.org/Graphics/SVG/1.1/DTD/svg11.dtd">
<!-- Creator: CorelDRAW X7 -->
<svg xmlns="http://www.w3.org/2000/svg" xml:space="preserve" width="84.6666mm" height="84.6666mm" version="1.1" style="shape-rendering:geometricPrecision; text-rendering:geometricPrecision; image-rendering:optimizeQuality; fill-rule:evenodd; clip-rule:evenodd"
viewBox="0 0 8467 8467"
 xmlns:xlink="http://www.w3.org/1999/xlink">
 <defs>
  <style type="text/css">
   <![CDATA[
    .fil6 {fill:#1A1A1A}
    .fil2 {fill:#587377}
    .fil3 {fill:#A79166}
    .fil5 {fill:#B16A86}
    .fil1 {fill:#CB8E53}
    .fil4 {fill:#E3757A}
    .fil0 {fill:white}
   ]]>
  </style>
 </defs>
 <g id="Layer_x0020_1">
  <metadata id="CorelCorpID_0Corel-Layer"/>
  <g id="_577159232">
   <polygon class="fil0" points="0,0 8467,0 8467,8467 0,8467 "/>
   <path class="fil1" d="M1973 3994c-40,64 -64,137 -68,216l0 47c4,79 28,152 68,215l0 -478z"/>
   <path class="fil1" d="M1990 3969l0 529c20,27 42,52 68,74l0 -677c-26,22 -48,47 -68,74z"/>
   <path class="fil2" d="M2094 3866l0 735c21,15 44,28 68,40l0 -815c-24,11 -47,25 -68,40z"/>
   <path class="fil2" d="M2179 3818l0 830c22,10 44,17 68,23l0 -875c-24,5 -46,13 -68,22z"/>
   <path class="fil3" d="M2279 3789l0 889c22,3 45,6 68,6l0 -901c-23,0 -46,2 -68,6z"/>
   <path class="fil3" d="M2364 3783l0 901c23,0 45,-3 68,-6l0 -889c-23,-4 -45,-6 -68,-6z"/>
   <path class="fil4" d="M2464 3796l0 875c23,-6 46,-13 68,-23l0 -830c-22,-9 -45,-16 -68,-22z"/>
   <path class="fil4" d="M2549 3826l0 815c24,-12 46,-25 68,-40l0 -735c-22,-15 -44,-29 -68,-40z"/>
   <path class="fil5" d="M2653 3895l0 677c25,-23 48,-48 68,-75l0 -527c-20,-28 -43,-53 -68,-75z"/>
   <path class="fil5" d="M2738 3995l0 477c41,-65 65,-141 68,-223l0 -31c-3,-82 -27,-158 -68,-223z"/>
   <path class="fil6" d="M2970 3560c7,0 14,301 14,673 0,372 -7,674 -14,674 -8,0 -14,-302 -14,-674 0,-372 6,-673 14,-673z"/>
   <path class="fil6" d="M3924 4232c0,-54 -10,-105 -30,-153 -19,-49 -47,-91 -82,-127 -35,-35 -77,-64 -126,-85 -49,-20 -103,-31 -163,-31 -59,0 -113,11 -162,32 -49,21 -91,50 -127,86 -36,36 -64,79 -84,127 -19,48 -29,99 -29,153 0,55 10,106 29,154 20,48 48,90 83,126 35,36 77,64 126,85 49,21 103,32 162,32 59,0 114,-11 163,-32 49,-21 91,-50 127,-86 36,-37 64,-79 83,-127 20,-48 30,-100 30,-154zm-142 2c0,38 -6,73 -19,106 -13,34 -30,62 -53,87 -23,24 -50,44 -82,58 -32,14 -67,22 -105,22 -38,0 -73,-8 -105,-22 -32,-15 -60,-35 -83,-60 -23,-25 -41,-54 -54,-87 -12,-33 -19,-68 -19,-106 0,-37 7,-72 19,-106 13,-33 31,-62 54,-86 22,-25 50,-44 81,-58 32,-15 67,-22 105,-22 38,0 73,7 106,22 32,15 59,34 82,59 23,25 41,54 54,88 13,33 19,68 19,105zm424 163c0,-38 5,-72 14,-101 10,-28 23,-52 41,-71 17,-19 38,-34 62,-43 24,-10 51,-14 80,-14l8 0 0 -141c-51,-2 -94,10 -127,36 -34,27 -60,62 -78,106l0 -131 -134 0 0 579 134 0 0 -220zm481 -246l155 0 0 -113 -155 0 0 -159 -134 0 0 159 -74 0 0 113 74 0 0 306c0,32 4,59 12,81 8,21 19,39 35,52 15,13 33,23 53,28 21,6 43,9 68,9 24,0 46,-2 65,-7 19,-6 37,-13 54,-22l0 -109c-26,13 -54,20 -82,20 -23,0 -40,-6 -53,-17 -12,-12 -18,-30 -18,-56l0 -285zm858 177c0,-42 -8,-81 -24,-118 -15,-36 -36,-68 -64,-96 -27,-27 -60,-49 -97,-64 -38,-16 -79,-24 -124,-24 -44,0 -86,8 -123,24 -38,16 -70,38 -98,65 -27,28 -49,60 -65,97 -15,37 -23,76 -23,118 0,42 7,81 23,117 15,36 37,68 64,95 27,28 60,49 98,65 37,16 78,24 122,24 45,0 86,-9 124,-25 38,-16 71,-37 98,-65 28,-27 49,-59 65,-96 16,-36 24,-76 24,-117zm-134 2c0,25 -4,49 -12,72 -8,22 -20,42 -35,58 -16,17 -34,31 -55,41 -22,9 -46,14 -73,14 -25,0 -49,-5 -70,-14 -22,-10 -40,-24 -56,-41 -15,-16 -28,-36 -36,-59 -9,-23 -13,-48 -13,-73 0,-26 4,-50 12,-72 8,-22 19,-42 34,-59 16,-17 34,-30 56,-40 21,-10 45,-15 71,-15 26,0 50,5 72,15 21,10 39,23 55,41 16,17 28,37 37,59 8,23 13,47 13,73zm751 -201c-15,-31 -37,-56 -66,-75 -29,-19 -64,-28 -106,-28 -22,0 -42,3 -60,8 -18,6 -34,13 -48,23 -14,10 -27,20 -38,32 -11,12 -21,24 -31,38l0 -89 -134 0 0 579 134 0 0 -325c0,-45 12,-80 34,-106 23,-25 53,-38 90,-38 37,0 66,12 86,36 20,24 31,59 31,104l0 329 134 0 0 -326c0,-47 11,-82 34,-106 23,-25 53,-37 89,-37 37,0 66,12 86,36 21,24 31,59 31,105l0 328 134 0 0 -369c0,-71 -18,-126 -54,-164 -36,-39 -86,-58 -149,-58 -44,0 -82,9 -114,28 -32,19 -59,44 -83,75z"/>
  </g>
 </g>
</svg>
